<?xml version="1.0" encoding="UTF-8" standalone="no"?>
<svg
  xmlns:dc="http://purl.org/dc/elements/1.1/"
  xmlns:cc="http://creativecommons.org/ns#"
  xmlns:rdf="http://www.w3.org/1999/02/22-rdf-syntax-ns#"
  xmlns:svg="http://www.w3.org/2000/svg"
  xmlns="http://www.w3.org/2000/svg"
  xml:space="preserve"
  enable-background="new 0 0 512 512"
  viewBox="0 0 512 512"
  height="512px"
  width="512px"
  y="0px"
  x="0px"
  id="NexT"
  version="1.1">
  <metadata id="metadata3390">
    <rdf:RDF>
    <cc:Work rdf:about="">
    <dc:format>image/svg+xml</dc:format>
    <dc:type rdf:resource="http://purl.org/dc/dcmitype/StillImage" />
    <dc:title></dc:title>
    </cc:Work></rdf:RDF>
  </metadata>
  <defs id="defs3388" />
  <path d="M512.268258 296.830499L271.270226 537.828531c-61.734142-61.734142-99.814485-146.911162-99.814485-241.104516l340.812517 0.106484z" fill="#F4DE3B" p-id="3582"></path><path d="M512.268258 637.643016c-94.193354 0-179.369351-38.185803-241.104516-99.814485l241.104516-240.998032v340.812517zM512.268258 296.830499l240.998032 240.998032c-61.734142 61.734142-146.911162 99.814485-240.998032 99.814485V296.830499z" fill="#F4DE3B" p-id="3583"></path><path d="M512.268258 296.830499h340.919001c0 94.193354-38.185803 179.369351-99.920969 241.104516l-240.998032-241.104516z" fill="#F4DE3B" p-id="3584"></path><path d="M853.187259 296.830499h89.420001c0 237.709313-192.73515 430.337978-430.337978 430.337978-237.709313 0-430.337978-192.73515-430.337978-430.337978h89.420001c0 94.08687 38.185803 179.369351 99.814484 241.104516s146.911162 99.814485 241.104517 99.814485c94.08687 0 179.369351-38.185803 240.998032-99.814485 61.838578-61.735166 99.918921-147.017646 99.918921-241.104516z" fill="#F7B239" p-id="3585"></path><path d="M699.169309 649.629641c-5.727615 0-11.137825-2.970291-14.108116-8.274017-4.348441-7.849105-1.591118-17.607756 6.257987-21.957221 89.737405-50.066968 155.185179-135.667877 179.475835-234.951989 2.12149-8.697906 10.92588-14.001632 19.517302-11.880141 8.697906 2.12149 14.001632 10.92588 11.880141 19.517302-26.412146 107.982018-97.587534 201.114627-195.174044 255.423552a15.333707 15.333707 0 0 1-7.849105 2.122514zM764.191147 459.546355c-2.758347 0-5.622154-0.742317-8.167534-2.227975-7.743645-4.561409-10.289024-14.42552-5.834098-22.169165 14.743949-25.244917 25.351401-52.717808 31.291983-81.357928 1.803062-8.697906 10.395508-14.32006 19.198874-12.516998 8.697906 1.803062 14.32006 10.395508 12.516998 19.198874-6.6829 32.13976-18.563041 62.794887-35.110052 91.116579-2.970291 5.092806-8.379477 7.956613-13.896171 7.956613z" fill="#FFFFFF" p-id="3586"></path><path d="M894.873726 342.336058m-16.229606 0a16.229606 16.229606 0 1 0 32.459212 0 16.229606 16.229606 0 1 0-32.459212 0Z" fill="#FFFFFF" p-id="3587"></path><path d="M942.71272 280.601917H81.929256c-8.90985 0-16.229606 7.213272-16.229606 16.229606 0 246.195274 200.37231 446.567584 446.567584 446.567584s446.567584-200.37231 446.567585-446.567584c0.001024-9.017358-7.212248-16.229606-16.122099-16.229606zM271.588654 514.598621c-48.793255-53.885037-79.873294-124.211624-83.691362-201.645h285.336362L271.588654 514.598621z m224.556482-178.732494v285.230902c-77.326891-3.818068-147.759963-34.791623-201.645-83.691362l201.645-201.53954z m32.351704 0l201.645 201.645c-53.885037 48.793255-124.211624 79.873294-201.645 83.691362v-285.336362zM752.947862 514.598621L551.302862 312.953621h285.336362c-3.818068 77.327915-34.791623 147.759963-83.691362 201.645zM512.268258 710.939895c-222.965364 0-405.41149-177.1424-413.897452-397.986274h57.173757c8.485962 189.44643 165.262259 340.919001 356.723695 340.919001S860.505991 502.400051 868.991953 312.953621h57.173756c-8.485962 220.950358-190.932088 397.986274-413.897451 397.986274z" fill="#333333" p-id="3588"></path>
</svg>
